<?xml version="1.0" encoding="UTF-8"?>
<svg width="20px" height="23px" viewBox="0 0 20 23" version="1.1" xmlns="http://www.w3.org/2000/svg" xmlns:xlink="http://www.w3.org/1999/xlink">
    <!-- Generator: Sketch 51 (57462) - http://www.bohemiancoding.com/sketch -->
    <title>Budicon-Outline/Interface/notification</title>
    <desc>Created with Sketch.</desc>
    <defs></defs>
    <g id="Symbols" stroke="none" stroke-width="1" fill="none" fill-rule="evenodd">
        <g id="Group-2" transform="translate(-172.000000, -22.000000)" fill="#000000" fill-rule="nonzero">
            <g id="Group">
                <g transform="translate(43.000000, 21.000000)">
                    <g id="Budicon-Outline/Interface/notification" transform="translate(126.000000, 0.000000)">
                        <path d="M22.5607,18.5605 L21.5858,17.5859 C21.2106521,17.2107593 20.9999276,16.7019342 21,16.1714 L21,9 C21,4.581722 17.418278,1 13,1 C8.581722,1 5,4.581722 5,9 L5,16.1714 C5.00012543,16.7019545 4.78943576,17.2108184 4.4143,17.586 L3.4393,18.5606 C3.15804928,18.8418718 3.00003191,19.2233365 3,19.6211 L3,21 L9.1414,21 C9.59024415,22.7647419 11.1791231,24.0000916 13.00005,24.0000916 C14.8209769,24.0000916 16.4098559,22.7647419 16.8587,21 L23,21 L23,19.6211 C22.9999946,19.2233018 22.8419752,18.8417963 22.5607,18.5605 Z M13,23 C11.7329142,22.9959012 10.605445,22.1950566 10.1843,21 L15.8156,21 C15.3944923,22.1950409 14.2670587,22.9958888 13,23 Z M22.0000012,20 L3.99999905,20 L4,19.6211 C3.99974101,19.4884455 4.05248187,19.3611835 4.1465,19.2676 L5.1214,18.293 C5.68579283,17.7314763 6.00215405,16.9675429 6,16.1714 L6,9 C6.00000006,5.13400679 9.13400679,2.0000001 13,2.0000001 C16.8659932,2.0000001 19.9999999,5.13400679 20,9 L20,16.1714 C19.9978724,16.9675573 20.3142705,17.7314928 20.8787,18.293 L21.8536,19.2676 C21.9475814,19.3611999 22.0002855,19.48846 22,19.6211 L22.0000012,20 Z" id="Shape"></path>
                    </g>
                </g>
            </g>
        </g>
    </g>
</svg>