<?xml version="1.0" encoding="UTF-8"?>
<svg width="25px" height="25px" viewBox="0 0 25 25" version="1.1" xmlns="http://www.w3.org/2000/svg" xmlns:xlink="http://www.w3.org/1999/xlink">
    <!-- Generator: Sketch 51 (57462) - http://www.bohemiancoding.com/sketch -->
    <title>Budicon-Outline/Interface/tick-sign</title>
    <desc>Created with Sketch.</desc>
    <defs></defs>
    <g id="Outline" stroke="none" stroke-width="1" fill="none" fill-rule="evenodd">
        <g id="Budicon-2.1.1-(Outline)" transform="translate(-1668.000000, -4962.000000)" fill="#000000" fill-rule="nonzero">
            <g id="Icons" transform="translate(465.000000, 177.000000)">
                <g id="Interface" transform="translate(770.000000, 4281.000000)">
                    <g id="Budicon-Outline/Interface/tick-sign" transform="translate(433.000000, 504.000000)">
                        <path d="M17.8428,9.1357 C17.9394426,9.22658155 17.9960065,9.35214437 18.000039,9.48474524 C18.0040714,9.61734612 17.9552417,9.74611397 17.8643,9.8427 L12.2178,15.8427 C12.0312661,16.0408287 11.7205359,16.0534054 11.5186,15.871 L8.165,12.8462 C8.02918063,12.7273529 7.9679488,12.5445357 8.0047872,12.3678596 C8.04162559,12.1911835 8.1708164,12.0480709 8.34281436,11.9934062 C8.51481232,11.9387415 8.70292105,11.9810095 8.835,12.104 L11.825,14.8008 L17.136,9.1572 C17.2268745,9.06061798 17.3523952,9.0040931 17.484947,9.00006103 C17.6174989,8.99602896 17.7462232,9.04482002 17.8428,9.1357 Z M25,12.5 C25,19.4035594 19.4035594,25 12.5,25 C5.59644063,25 8.45442189e-16,19.4035594 0,12.5 C-8.45442189e-16,5.59644063 5.59644063,1.26816328e-15 12.5,0 C15.8152061,-5.33125805e-16 18.99463,1.3169605 21.3388348,3.66116524 C23.6830395,6.00536997 25,9.18479388 25,12.5 Z M24,12.5 C24,6.14872538 18.8512746,1 12.5,1 C6.14872538,1 1,6.14872538 1,12.5 C1,18.8512746 6.14872538,24 12.5,24 C18.8483276,23.9928908 23.9928908,18.8483276 24,12.5 Z" id="Shape"></path>
                    </g>
                </g>
            </g>
        </g>
    </g>
</svg>